name C:\Users\antoi\Documents\MyRepositories\upper-imu-dc\Results\main_tracking\Case_79\ABD01_linearAccelerations_groundFrame.mot
datacolumns 4
datarows 47
range 6.26000000 6.72000000
endheader 
time	radius_imu_x	radius_imu_y	radius_imu_z	
          6.26000000	          0.27486446	          9.58863505	         -0.05726803	
          6.27000000	          0.25777619	          9.59583703	         -0.07305594	
          6.28000000	          0.23419425	          9.60157668	         -0.08492838	
          6.29000000	          0.20434704	          9.60605308	         -0.09282238	
          6.30000000	          0.16860409	          9.60953223	         -0.09679461	
          6.31000000	          0.12739449	          9.61224730	         -0.09686489	
          6.32000000	          0.08113695	          9.61436863	         -0.09296450	
          6.33000000	          0.03021369	          9.61599948	         -0.08497148	
          6.34000000	         -0.02497972	          9.61718127	         -0.07275782	
          6.35000000	         -0.08395627	          9.61794111	         -0.05625017	
          6.36000000	         -0.14603616	          9.61835862	         -0.03553705	
          6.37000000	         -0.21039567	          9.61830245	         -0.01103048	
          6.38000000	         -0.27589447	          9.61805482	          0.01673497	
          6.39000000	         -0.34116241	          9.61807082	          0.04717663	
          6.40000000	         -0.40488614	          9.61836717	          0.07908489	
          6.41000000	         -0.46555362	          9.61934827	          0.11119552	
          6.42000000	         -0.52170383	          9.62120127	          0.14249821	
          6.43000000	         -0.57210467	          9.62426041	          0.17187200	
          6.44000000	         -0.61627976	          9.62821855	          0.19937811	
          6.45000000	         -0.65332743	          9.63330101	          0.22401436	
          6.46000000	         -0.68317925	          9.63911206	          0.24595487	
          6.47000000	         -0.70543053	          9.64517847	          0.26624201	
          6.48000000	         -0.72034487	          9.65166147	          0.28327102	
          6.49000000	         -0.72745359	          9.65834376	          0.29758284	
          6.50000000	         -0.72608110	          9.66529215	          0.30805712	
          6.51000000	         -0.71529817	          9.67198057	          0.31491119	
          6.52000000	         -0.69478527	          9.67859597	          0.31723351	
          6.53000000	         -0.66528324	          9.68522769	          0.31459479	
          6.54000000	         -0.62742764	          9.69164069	          0.30732677	
          6.55000000	         -0.58241760	          9.69766031	          0.29588581	
          6.56000000	         -0.53125395	          9.70300731	          0.28103653	
          6.57000000	         -0.47487025	          9.70721186	          0.26395719	
          6.58000000	         -0.41463253	          9.70984680	          0.24613175	
          6.59000000	         -0.35154958	          9.71047050	          0.22904062	
          6.60000000	         -0.28635298	          9.70897679	          0.21369085	
          6.61000000	         -0.21940833	          9.70576621	          0.20131395	
          6.62000000	         -0.15423200	          9.69971616	          0.19206884	
          6.63000000	         -0.09203938	          9.69103310	          0.18572571	
          6.64000000	         -0.03095653	          9.68300690	          0.18382228	
          6.65000000	          0.02462566	          9.67390762	          0.18514919	
          6.66000000	          0.07367004	          9.66446525	          0.18976732	
          6.67000000	          0.11512367	          9.65505940	          0.19727763	
          6.68000000	          0.14800021	          9.64605896	          0.20709773	
          6.69000000	          0.17170540	          9.63769103	          0.21921562	
          6.70000000	          0.18593023	          9.63020088	          0.23331839	
          6.71000000	          0.19071842	          9.62389758	          0.24906522	
          6.72000000	          0.18653494	          9.61904804	          0.26617021	
